<svg width="50" height="50" viewBox="0 0 50 50" fill="none" xmlns="http://www.w3.org/2000/svg">
<path fill-rule="evenodd" clip-rule="evenodd" d="M24.0231 6.9557C19.7689 7.18234 15.9053 8.88042 12.9319 11.5502L15.874 14.4923L14.4927 15.8736L11.5506 12.9315C8.88082 15.9049 7.18278 19.7686 6.95618 24.0228L11.3255 24.0228L11.3255 25.9763L6.95618 25.9763C7.1478 29.5737 8.39164 32.8919 10.3855 35.6287C14.8477 33.6782 19.7763 32.5961 24.9576 32.5961C30.1638 32.5961 35.1148 33.6886 39.5939 35.6568C41.5998 32.9147 42.8515 29.5861 43.0438 25.9763L38.6746 25.9763L38.6746 24.0228L43.0438 24.0228C42.8181 19.7859 41.133 15.9364 38.482 12.9679L35.5763 15.8736L34.195 14.4923L37.1044 11.5829C34.1261 8.89421 30.2482 7.18317 25.9766 6.95568L25.9766 11.3251L24.0231 11.3251L24.0231 6.9557ZM4 24.9995C4 13.4015 13.402 3.99951 25 3.99951C36.598 3.99951 46 13.4015 46 24.9995C46 36.5975 36.598 45.9995 25 45.9995C13.402 45.9995 4 36.5975 4 24.9995ZM36.4373 18.7054L37.2559 20.4791L27.9226 24.7865C27.9276 24.8569 27.9302 24.9279 27.9302 24.9995C27.9302 26.6178 26.6183 27.9297 24.9999 27.9297C23.3816 27.9297 22.0697 26.6178 22.0697 24.9995C22.0697 23.3812 23.3816 22.0693 24.9999 22.0693C25.8437 22.0693 26.6042 22.4259 27.1389 22.9967L36.4373 18.7054Z" fill="#192227" style="fill:#192227;fill:color(display-p3 0.0980 0.1333 0.1529);fill-opacity:1;"/>
</svg>
