<svg width="75" height="75" viewBox="0 0 75 75" fill="none" xmlns="http://www.w3.org/2000/svg">
<rect y="-0.000488281" width="75" height="75" rx="37.5" fill="#F9A600" style="fill:#F9A600;fill:color(display-p3 0.9765 0.6510 0.0000);fill-opacity:1;"/>
<g clip-path="url(#clip0_1_2087)">
<path d="M57.6667 34.2C57.6667 35 57.5872 35.84 57.4282 36.64C56.991 39 55.8781 41.16 54.2485 42.88L38.9065 56.6C38.5885 56.88 38.2308 57 37.8333 57C37.4359 57 37.0782 56.88 36.7602 56.6L21.4977 42.92C19.7886 41.12 18.6757 38.96 18.2385 36.6C18.0795 35.8 18 35 18 34.16C18 27.48 23.167 22 29.4866 22C32.7061 22 35.7268 23.4 37.8731 25.84C39.9796 23.44 42.9606 22.04 46.2198 22.04C52.5394 22.04 57.6667 27.48 57.6667 34.2Z" fill="#192227" style="fill:#192227;fill:color(display-p3 0.0980 0.1333 0.1529);fill-opacity:1;"/>
</g>
<defs>
<clipPath id="clip0_1_2087">
<rect width="39.92" height="35" fill="white" style="fill:white;fill-opacity:1;" transform="translate(18 22)"/>
</clipPath>
</defs>
</svg>
