<svg width="50" height="50" viewBox="0 0 50 50" fill="none" xmlns="http://www.w3.org/2000/svg">
<path d="M25.7074 25.1275C29.9868 25.1275 33.456 21.6584 33.456 17.379C33.456 13.0995 29.9868 9.63037 25.7074 9.63037C21.428 9.63037 17.9588 13.0995 17.9588 17.379C17.9588 21.6584 21.428 25.1275 25.7074 25.1275Z" fill="#192227" style="fill:#192227;fill:color(display-p3 0.0980 0.1333 0.1529);fill-opacity:1;"/>
<path d="M25.7076 27.6799C19.896 27.6799 15.1847 32.3912 15.1847 38.2028V46.1904H36.2304V38.2028C36.2304 32.3912 31.5192 27.6799 25.7076 27.6799Z" fill="#192227" style="fill:#192227;fill:color(display-p3 0.0980 0.1333 0.1529);fill-opacity:1;"/>
<path fill-rule="evenodd" clip-rule="evenodd" d="M38.4854 39.4819H45.6244V33.4821C45.6244 29.1167 42.0856 25.5779 37.7202 25.5779C35.723 25.5779 33.8989 26.3186 32.5074 27.5403C36.348 29.699 38.4854 33.9553 38.4854 38.8531V39.4819ZM34.2128 22.4857C35.1881 23.2232 36.403 23.6607 37.7201 23.6607C40.9345 23.6607 43.5403 21.0549 43.5403 17.8404C43.5403 14.6259 40.9345 12.0201 37.7201 12.0201C36.5982 12.0201 35.5505 12.3375 34.6618 12.8874C35.2127 14.1125 35.5187 15.4684 35.5187 16.8948C35.5187 18.9695 35.0878 20.8951 34.2128 22.4857ZM17.4215 11.0056C16.5166 10.535 15.4882 10.269 14.3977 10.269C10.7732 10.269 7.83495 13.2073 7.83495 16.8318C7.83495 20.4563 10.7732 23.3946 14.3977 23.3946C15.3145 23.3946 16.1874 23.2066 16.9799 22.8671C15.9555 21.2074 15.4516 19.1383 15.4516 16.8948C15.4516 14.6887 16.1837 12.6511 17.4215 11.0056ZM19.3821 27.0789C17.9594 26.1174 16.2442 25.556 14.3978 25.556C9.47561 25.556 5.48535 29.5462 5.48535 34.4684V41.2337H12.4854V38.8531C12.4854 33.5776 14.9651 29.0463 19.3821 27.0789Z" fill="#192227" style="fill:#192227;fill:color(display-p3 0.0980 0.1333 0.1529);fill-opacity:1;"/>
</svg>
