<svg width="50" height="50" viewBox="0 0 50 50" fill="none" xmlns="http://www.w3.org/2000/svg">
<path fill-rule="evenodd" clip-rule="evenodd" d="M5.98466 46.9171C6.66743 47.5999 7.77441 47.5999 8.45718 46.9171L29.4784 25.8957L24.5334 20.9507L3.51214 41.9721C2.82938 42.6549 2.82938 43.7619 3.51214 44.4446L5.98466 46.9171ZM25.9476 19.5364L30.8926 24.4815L35.7328 19.6412C36.4156 18.9584 36.4156 17.8514 35.7328 17.1687L33.2603 14.6962C32.5775 14.0134 31.4706 14.0134 30.7878 14.6962L25.9476 19.5364Z" fill="#192227" style="fill:#192227;fill:color(display-p3 0.0980 0.1333 0.1529);fill-opacity:1;"/>
<rect x="20.9971" y="8.41406" width="2" height="8" transform="rotate(-45 20.9971 8.41406)" fill="#192227" style="fill:#192227;fill:color(display-p3 0.0980 0.1333 0.1529);fill-opacity:1;"/>
<rect width="2" height="8" transform="matrix(0.707107 -0.707107 -0.707107 -0.707107 41.6543 29.0708)" fill="#192227" style="fill:#192227;fill:color(display-p3 0.0980 0.1333 0.1529);fill-opacity:1;"/>
<rect x="30.9971" y="3" width="2" height="8" fill="#192227" style="fill:#192227;fill:color(display-p3 0.0980 0.1333 0.1529);fill-opacity:1;"/>
<rect width="2" height="8" transform="matrix(-4.37114e-08 -1 -1 -8.68628e-08 47.0684 19.0708)" fill="#192227" style="fill:#192227;fill:color(display-p3 0.0980 0.1333 0.1529);fill-opacity:1;"/>
<rect x="41.6538" y="7" width="2" height="8" transform="rotate(45 41.6538 7)" fill="#192227" style="fill:#192227;fill:color(display-p3 0.0980 0.1333 0.1529);fill-opacity:1;"/>
</svg>
