<svg width="50" height="50" viewBox="0 0 50 50" fill="none" xmlns="http://www.w3.org/2000/svg">
<path fill-rule="evenodd" clip-rule="evenodd" d="M25.3115 46.9995C31.9338 43.8597 42.6553 34.1928 42.6553 27.8183L42.6553 7.77082C37.0007 7.77082 28.5539 5.66637 25.3118 1.99951C21.987 5.69093 13.6223 7.77082 7.96777 7.77082L7.96777 26.0139C7.96777 34.1928 18.6892 43.8597 25.3115 46.9995ZM38.5206 24.0351C38.5206 31.2148 32.6066 37.0351 25.3113 37.0351C18.0161 37.0351 12.1021 31.2148 12.1021 24.0351C12.1021 16.8554 18.0161 11.0351 25.3113 11.0351C32.6066 11.0351 38.5206 16.8554 38.5206 24.0351ZM22.9612 30.6609L34.5936 19.2128L32.9212 17.5669L22.9612 27.3691L17.714 22.2047L16.0416 23.8504L22.9612 30.6609Z" fill="#192227" style="fill:#192227;fill:color(display-p3 0.0980 0.1333 0.1529);fill-opacity:1;"/>
</svg>
